<svg height="847" width="847" xmlns="http://www.w3.org/2000/svg"><g fill-rule="evenodd"><path d="m336 170v85.164856l-152 74.012329-82 117.608643 321 381.214172 322-381.214172-82-117.608643-150-74.012329 1-85.164856z" fill="#45111b" stroke="#45111b" stroke-width="24"/><path d="m422 480v-298h-75v78l-154 75-74 105 106 138 4-113 56-86 24-10-64 94z" fill="#fffff4"/><path d="m245 463 177 17v316z" fill="#bf0734"/><path d="m234 440 55-86-26-3-13-21 39-19 17 17 35-51-140 66zm188 31v-9l-105-73 28-42 1-19-88 128zm-34-263 35 16-1.029419 58-33.970581-6zm-35 68 13 6 7-11v-79l15 4v-6l-29-4v81z" fill="#fe2653"/><path d="m388 190v18l34 16v58l32-3v-89zm85 80-19 9 75 111-107 73v8l176-14zm-248 296 132 144-128-244-99-23z" fill="#bf0734"/><path d="m225 578v-12l133 145 27 45zm197-107v9l181-18-6-7zm-148 124-79-118-49-20zm79-319 13 6-58 88-29 18zm-128 180 2-6-10-16-8-2-27-63-43 61z" fill="#fe2653"/><path d="m460 756 154-298 96-27-55-80-41 107-124-193 11-6 152 77 76 106zm31-46 223-269-89 25zm123-270 34-99-147-71zm35-99h3" fill="#fe2653"/><path d="m595.69812 352.345245-46.69812-29.345245 55 85z" fill="#fe2653"/><path d="m501 184v82l10 31-21-32v-79z" fill="#f1ccb3"/><path d="m422 282 32-3 75 111-107 74z" fill="#fe2653"/></g><path d="m422 495v221l-145-233z" fill="#fe2653"/><path d="m421.677917 191v-.009766l-32.677734-.990234s-27.240539-1.26355-44-4c-24.387665-3.981995-53.726013-18.909058-50-55 6.481018-28.637451 25.423645-36.203979 38.306641-37.927734-.229126-.005005-15.725464-9.524414-17.306641-42.072266 7.635285-48.47583 69.180206-48.524475 72-49 5.886597-.992737 34-2 34-2s28.113403 1.007263 34 2c2.819824.475525 64.364746.524109 72 49-1.581177 32.547852-17.317261 42.072266-17.585937 42.078125 12.882141 1.734741 31.789795 9.315979 38.263671 37.921875 3.726075 36.090942-25.612304 51.018005-50 55-16.759399 2.73645-44 4-44 4l-32.677734.990234v.009766l-.162109-.003906z" fill="#45111b" fill-rule="evenodd"/><path d="m360 54 63 6 65-6v-21h-128z" fill="#e8846e" fill-rule="evenodd"/><path d="m487 42 4-9s12.023438 5.793213 12 11c-.021362 4.737488-10 9-10 9v-7z" fill="#f1ccb3" fill-rule="evenodd"/><path d="m342 62 13 8 11 42-10-5z" fill="#fffff4" fill-rule="evenodd"/><path d="m374 74 53 4v39l-43-1z" fill="#e8846e" fill-rule="evenodd"/><path d="m396 93.5c0-5.742615-5.596436-6.5-12.5-6.5s-12.5 2.910156-12.5 6.5 5.596436 6.5 12.5 6.5 12.5-.757385 12.5-6.5z" fill="#45111b" fill-rule="evenodd"/><path d="m427 78 50-4-12 41-38 2zm-72-8 19 4 10 42-18-4zm140-1 11-6-14 44-10 5z" fill="#bf0734" fill-rule="evenodd"/><path d="m400 171s-26.854156-2.217346-40-5c-23.847778-5.047974-30-10-30-10v-24l74 17h18v-11h28s6.640747.235352 41-7c16.828796-4.269714 18-10 18-10v-6.902344c-.001282-.031128-.002625-.066955-.003906-.097656.00122.000366.002685-.000366.003906 0 0 0 4.237549.630127 8.767578 3.550781 11.518494 6.567932 11.18866 16.492798 11.228516 19.449219.005798.43103-.226197 5.020264-.53125 6.017578-2.206787 10.837769-10.46875 13.982422-10.46875 13.982422l-2.996094 2v-23.164062c-9.312012 6.951599-29.763428 10.554748-46 12.382812v21.78125h-11v-20.728516c-4.506042.356995-7.961548.544495-10 .640625v21.087891z" fill="#f1ccb3" fill-rule="evenodd"/><path d="m422 138v11h-20s-60.099915-1.981628-72-17c.011871 6.943481 0 24 0 24s-11.212219-4.268188-11-20c.048126-3.567627-.441132-17.280945 20-23-.105255 2.4776-.19455 6.252441 0 8 4.884735 14.619629 73 17 73 17z" fill="#fffff4" fill-rule="evenodd"/><path d="m411 56v6s22.281921.062683 34 0c36.079468-3.36615 48-9 48-9s2.59613-4.113464 0-7c-1.299744-1.445129-1.102905-1.740479-5-3-8.881958 3.052246-5.875916 10.079956-53 13-7.983398.236755-24 0-24 0z" fill="#bf0734" fill-rule="evenodd"/><path d="m420.630005 33 8.630005.150269c10.099975 5.474243 2.190002 15.80017-6.540009 13.181152-1.890014-.568848-4.589996-.858704-5.579986-3.209412-1.946686-4.658508-.783356-8.032531 3.48999-10.122009zm26.960449 6.003845 6.093689-.276672c2.747559-.124817 5.07605 2.001404 5.200806 4.748962l.033569.739197c.124756 2.747559-2.001404 5.07605-4.748962 5.200806l-6.09375.276733c-2.747498.124756-5.075989-2.001465-5.200745-4.748962l-.033569-.739258c-.124756-2.747559 2.001404-5.07605 4.748962-5.200806zm-48.420441 15.10614-9.279998-1.299987c-2.246674-5-1.323365-8.216675 2.769989-9.649964 5.019989-1.76001 10.579986-.070068 10.679992 5.819946.040009 2.580018-1.350006 4.289978-4.169983 5.130005z" fill="#bf0734"/><path d="m488 43s.916443-1.054749 3-10c-7.635498-4.810791-41.735107-8.032043-51-9-10.958191-1.144836-22.022736-.706909-33 0-23.408539 1.507446-62.793213 5.824768-63 20-.123138 8.441833 16.708618 15.351257 47 17 7.338776.399475 20 1 20 1s.038757-2.888 0-6c-18.295959-.912842-49.88562-5.269165-51-12 9.661346-8.106873 18.01944-7.316895 28-9 18.293823-2.446167 55.937073-1.879883 68-1 21.959473 2.145813 32 9 32 9z" fill="#fffff4" fill-rule="evenodd"/><path d="m423 817c-210.696198 0-381.5-170.803833-381.5-381.5 0-168.327576 109.018219-311.193115 260.298828-361.84375 3.35257 10.922363 8.101807 17.696228 11.644531 21.529297-144.431793 46.467407-248.943359 181.935425-248.943359 341.814453 0 198.27002 160.72998 359 359 359s359-160.72998 359-359c0-160.210266-104.945374-295.907654-249.841797-342.101562 3.572144-3.881409 8.239502-10.583619 11.554688-21.236329 151.274231 50.654236 260.287109 193.514893 260.287109 361.837891 0 210.696167-170.803711 381.5-381.5 381.5z" fill="#45111b" fill-rule="evenodd"/><path d="m597.619995 159.059998c0 3.037536-2.462463 5.5-5.5 5.5s-5.5-2.462464-5.5-5.5c0-3.037598 2.462463-5.5 5.5-5.5s5.5 2.462402 5.5 5.5zm31.146729 17.438415c-.427979 1.588623-2.072205 2.495972-3.672364 2.026672-1.600219-.469238-2.550476-2.13739-2.122436-3.725952.427978-1.588562 2.072143-2.495971 3.672363-2.026733 1.600159.469299 2.550476 2.137512 2.122437 3.726013zm-79.956726 43.751526c0 1.65686-1.34314 3.000061-2.999939 3.000061-1.656922 0-3.000061-1.343201-3.000061-3.000061 0-1.656799 1.343139-2.999939 3.000061-2.999939 1.656799 0 2.999939 1.34314 2.999939 2.999939zm111.619995 2.230041c0 2.772461-2.247498 5.02002-5.02002 5.02002-2.772461 0-5.019958-2.247559-5.019958-5.02002 0-2.77246 2.247497-5.020019 5.019958-5.020019 2.772522 0 5.02002 2.247559 5.02002 5.020019zm-27.410767 40.430176c-1.626953.281311-3.198608-.814087-3.510498-2.446655-.311829-1.632507.754272-3.18396 2.381226-3.465271 1.626892-.28125 3.198608.814148 3.510437 2.446716.311828 1.632508-.754212 3.18396-2.381165 3.46521zm88.270752 57.669861c0 1.932983-1.567017 3.499939-3.5 3.499939s-3.5-1.566956-3.5-3.499939c0-1.933044 1.567017-3.500061 3.5-3.500061s3.5 1.567017 3.5 3.500061zm6.476074 14.8591.998902.108307c2.707763.29361 4.660461 2.687622 4.361511 5.347138l-.13501 1.201355c-.29895 2.659515-2.736328 4.577453-5.444092 4.283844l-.998962-.108338c-2.707703-.293609-4.660401-2.687591-4.361511-5.347107l.13507-1.201355c.298951-2.659515 2.736329-4.577453 5.444092-4.283844z" fill="#45111b"/><path d="m683 301.5c0-12.133911-9.197144-22.118652-21-23.367187v-3.265625c11.802917-1.248536 21-11.233277 21-23.367188 0-.504028 3-.504028 3 0 0 12.47467 9.720459 22.677429 22 23.451172v3.097656c-12.279541.773743-22 10.976502-22 23.451172 0 .166931-3 .166931-3 0zm-88-57c0-12.133911-9.197144-22.118652-21-23.367187v-3.265625c11.802917-1.248536 21-11.233277 21-23.367188 0-.504028 3-.504028 3 0 0 12.47467 9.720459 22.677429 22 23.451172v3.097656c-12.279541.773743-22 10.976502-22 23.451172 0 .166931-3 .166931-3 0z" fill="#45111b" fill-rule="evenodd"/><path d="m250.346695 159.059998c0 3.037536 2.462448 5.5 5.50003 5.5 3.037522 0 5.499955-2.462464 5.499955-5.5 0-3.037598-2.462433-5.5-5.499955-5.5-3.037582 0-5.50003 2.462402-5.50003 5.5zm-31.146713 17.438415c.427963 1.588623 2.072159 2.495972 3.672363 2.026672 1.600189-.469238 2.550461-2.13739 2.122421-3.725952-.427963-1.588562-2.072143-2.495971-3.672348-2.026733-1.600204.469299-2.550476 2.137512-2.122436 3.726013zm79.956695 43.751526c0 1.65686 1.34317 3.000061 2.99997 3.000061 1.656891 0 3.00003-1.343201 3.00003-3.000061 0-1.656799-1.343139-2.999939-3.00003-2.999939-1.6568 0-2.99997 1.34314-2.99997 2.999939zm-111.61998 2.230041c0 2.772461 2.247498 5.02002 5.02002 5.02002 2.772461 0 5.019958-2.247559 5.019958-5.02002 0-2.77246-2.247497-5.020019-5.019958-5.020019-2.772522 0-5.02002 2.247559-5.02002 5.020019zm27.410782 40.430176c1.626938.281311 3.198593-.814087 3.510468-2.446655.311859-1.632507-.754257-3.18396-2.381195-3.465271-1.626877-.28125-3.198593.814148-3.510468 2.446716-.311798 1.632508.754257 3.18396 2.381195 3.46521zm-88.270767 57.669861c0 1.932983 1.567017 3.499939 3.5 3.499939s3.5-1.566956 3.5-3.499939c0-1.933044-1.567017-3.500061-3.5-3.500061s-3.5 1.567017-3.5 3.500061zm-6.476089 14.8591-.998887.108307c-2.707748.29361-4.660453 2.687622-4.361518 5.347138l.135009 1.201355c.298928 2.659515 2.736344 4.577453 5.444085 4.283844l.998947-.108338c2.707748-.293609 4.660453-2.687591 4.361519-5.347107l-.135071-1.201355c-.298935-2.659515-2.736283-4.577453-5.444084-4.283844z" fill="#45111b"/><path d="m164.96669 301.5c0-12.133911 9.197098-22.118652 20.999985-23.367187v-3.265625c-11.802887-1.248536-20.999985-11.233277-20.999985-23.367188 0-.504028-3-.504028-3 0 0 12.47467-9.720459 22.677429-22 23.451172v3.097656c12.279511.773743 22 10.976502 22 23.451172zm87.999985-57c0-12.133911 9.197113-22.118652 21-23.367187v-3.265625c-11.802887-1.248536-21-11.233277-21-23.367188 0-.504028-3-.504028-3 0 0 12.47467-9.720459 22.677429-22 23.451172v3.097656c12.279541.773743 22 10.976502 22 23.451172 0 .166931 3 .166931 3 0z" fill="#45111b" fill-rule="evenodd"/><path d="m736.57666 530.5495c-2.761047-.040955-4.962036-2.312439-4.916015-5.073548.04602-2.761108 2.321533-4.966247 5.08258-4.925354 2.761047.040955 4.961975 2.312439 4.916016 5.073548-.04596 2.761108-2.321533 4.966247-5.082581 4.925354zm-25.377502 38.301574c-3.550354-1.371094-5.190308-5.411987-3.662903-9.025512 1.527344-3.613587 5.643738-5.431458 9.194153-4.060303 3.550415 1.371094 5.190368 5.411987 3.662964 9.025574-1.527466 3.613525-5.643799 5.431396-9.194214 4.060241zm-35.517456 32.129395c-3.351014-1.775269-4.50586-5.997742-2.579346-9.431092 1.926514-3.43341 6.204834-4.777526 9.555847-3.002258 3.351013 1.775269 4.505798 5.997803 2.579346 9.431152-1.926514 3.43335-6.204834 4.777466-9.555847 3.002198zm-61.211731 65.869507c0 1.380737-1.119263 2.5-2.5 2.5-1.380738 0-2.5-1.119263-2.5-2.5 0-1.380738 1.119262-2.5 2.5-2.5 1.380737 0 2.5 1.119262 2.5 2.5zm10.060058 22.369995c0 1.933044-1.566955 3.5-3.500061 3.5-1.932983 0-3.499939-1.566956-3.499939-3.5 0-1.932984 1.566956-3.5 3.499939-3.5 1.933106 0 3.500061 1.567016 3.500061 3.5zm-30.829467 24.231811c-4.76941-1.279663-7.504822-6.209594-6.109681-11.011352 1.395142-4.801758 6.392456-7.656983 11.161866-6.37732 4.769409 1.279663 7.504821 6.209656 6.10968 11.011353-1.395142 4.801758-6.392456 7.656982-11.161865 6.377319zm-45.215455 26.871582c-2.623962-.805786-4.032592-3.599487-3.14624-6.23999.886353-2.640503 3.732056-4.127808 6.356018-3.322021 2.623963.805786 4.032593 3.599548 3.14624 6.23999-.886352 2.640503-3.732055 4.127807-6.356018 3.322021z" fill="#45111b"/><path d="m651.966797 664c-.492981-7.487183-6.479614-13.473816-13.966797-13.966797v-2.066406c7.487244-.492981 13.473816-6.479553 13.966797-13.966797h2.066406c.492981 7.487183 6.479553 13.473816 13.966797 13.966797v2.066406c-7.487183.492981-13.473816 6.479614-13.966797 13.966797z" fill="#45111b" fill-rule="evenodd"/><path d="m111.157051 530.5495c2.76104-.040955 4.962013-2.312439 4.916008-5.073548-.046005-2.761108-2.321533-4.966247-5.082573-4.925354-2.76104.040955-4.962013 2.312439-4.916008 5.073548.045937 2.761108 2.321533 4.966247 5.082573 4.925354zm25.37748 38.301574c3.550369-1.371094 5.190307-5.411987 3.662933-9.025512-1.52739-3.613587-5.643784-5.431458-9.194153-4.060303-3.55043 1.371094-5.190368 5.411987-3.662987 9.025574 1.527443 3.613525 5.643776 5.431396 9.194207 4.060241zm35.517456 32.129395c3.351043-1.775269 4.505859-5.997742 2.579345-9.431092-1.926513-3.43341-6.204803-4.777526-9.555847-3.002258-3.351043 1.775269-4.505798 5.997803-2.579345 9.431152 1.926513 3.43335 6.204864 4.777466 9.555847 3.002198zm61.211731 65.869507c0 1.380737 1.119293 2.5 2.5 2.5 1.380722 0 2.5-1.119263 2.5-2.5 0-1.380738-1.119278-2.5-2.5-2.5-1.380707 0-2.5 1.119262-2.5 2.5zm-10.060059 22.369995c0 1.933044 1.566986 3.5 3.500031 3.5 1.932998 0 3.499969-1.566956 3.499969-3.5 0-1.932984-1.566971-3.5-3.499969-3.5-1.933045 0-3.500031 1.567016-3.500031 3.5zm30.829468 24.231811c4.769424-1.279663 7.504837-6.209594 6.109695-11.011352-1.395141-4.801758-6.392456-7.656983-11.161865-6.37732s-7.504822 6.209656-6.109695 11.011353c1.395141 4.801758 6.392456 7.656982 11.161865 6.377319zm45.215469 26.871582c2.623963-.805786 4.032593-3.599487 3.14624-6.23999-.886352-2.640503-3.732055-4.127808-6.356018-3.322021-2.623962.805786-4.032592 3.599548-3.14624 6.23999.886353 2.640503 3.732056 4.127807 6.356018 3.322021z" fill="#45111b"/><path d="m195.766891 664c.492997-7.487183 6.479599-13.473816 13.966797-13.966797v-2.066406c-7.487213-.492981-13.4738-6.479553-13.966797-13.966797h-2.066406c-.492981 7.487183-6.479568 13.473816-13.966797 13.966797v2.066406c7.487213.492981 13.473816 6.479614 13.966797 13.966797z" fill="#45111b" fill-rule="evenodd"/></svg>